<?xml version="1.0" standalone="no"?>
<!DOCTYPE svg PUBLIC "-//W3C//DTD SVG 20010904//EN"
 "http://www.w3.org/TR/2001/REC-SVG-20010904/DTD/svg10.dtd">
<svg version="1.0" xmlns="http://www.w3.org/2000/svg"
 width="1024.000000pt" height="1024.000000pt" viewBox="0 0 1024.000000 1024.000000"
 preserveAspectRatio="xMidYMid meet">
<metadata>
Created by potrace 1.14, written by Peter Selinger 2001-2017
</metadata>
<g transform="translate(0.000000,1024.000000) scale(0.100000,-0.100000)"
fill="#000000" stroke="none">
<path d="M5134 8692 c-37 -7 -93 -26 -124 -42 -102 -52 -152 -112 -355 -430
-192 -300 -230 -360 -327 -510 -184 -287 -299 -473 -326 -530 -33 -70 -79
-204 -87 -254 -3 -17 -10 -58 -16 -90 -22 -124 -11 -321 27 -471 45 -177 151
-377 263 -498 150 -160 410 -96 465 115 24 92 0 175 -74 264 -53 63 -114 191
-134 279 -21 95 -15 248 14 336 26 81 65 150 258 449 143 223 290 451 409 640
30 47 57 84 61 83 3 -2 7 -16 8 -33 5 -66 41 -140 89 -183 33 -30 118 -66 160
-69 88 -5 158 22 216 84 64 67 74 98 73 233 -1 237 -18 317 -85 416 -116 171
-313 252 -515 211z"/>
<path d="M3007 7884 c-1 -1 -26 -5 -56 -8 -57 -7 -177 -50 -199 -73 -7 -7 -17
-13 -21 -13 -23 0 -126 -121 -156 -185 -64 -133 -66 -232 -10 -465 2 -8 15
-67 29 -130 13 -63 46 -209 71 -325 26 -115 48 -219 51 -230 2 -11 6 -29 8
-40 2 -11 25 -113 50 -227 25 -114 48 -222 51 -240 12 -65 74 -236 113 -309
70 -132 126 -206 236 -312 138 -134 317 -239 496 -290 107 -31 144 -37 253
-42 98 -5 132 5 202 61 63 49 90 113 90 209 -1 69 -5 86 -29 128 -52 88 -126
130 -251 143 -80 8 -196 47 -270 91 -84 51 -193 165 -237 249 -44 83 -58 131
-104 339 -19 88 -37 167 -39 175 -2 8 -12 58 -23 110 -11 52 -45 209 -76 348
-31 140 -58 266 -61 280 -2 15 -9 43 -15 62 -15 52 -13 54 21 25 61 -51 109
-68 184 -68 80 1 122 16 181 67 60 51 88 115 88 201 0 100 -28 148 -149 260
-118 110 -172 149 -240 174 -45 17 -180 42 -188 35z"/>
<path d="M7275 7704 c-33 -7 -69 -15 -80 -18 -11 -2 -83 -18 -160 -35 -77 -16
-242 -52 -368 -80 -125 -28 -238 -53 -252 -56 -14 -3 -37 -7 -51 -10 -14 -3
-54 -12 -88 -20 -33 -8 -72 -16 -86 -19 -81 -15 -305 -68 -365 -87 -237 -73
-468 -242 -612 -448 -18 -25 -36 -50 -40 -56 -19 -23 -85 -159 -109 -221 -62
-167 -90 -370 -60 -452 50 -138 194 -210 337 -169 108 32 172 114 190 244 20
146 45 218 116 325 85 130 237 236 388 274 27 6 343 76 365 80 14 3 53 11 86
19 34 8 73 16 85 19 13 2 150 32 304 66 154 34 291 64 305 66 14 3 34 7 44 11
17 5 16 1 -7 -27 -52 -61 -70 -109 -70 -185 0 -56 5 -80 25 -120 64 -124 195
-179 326 -139 49 15 70 31 151 113 183 186 232 282 232 452 0 176 -114 355
-275 432 -39 19 -84 38 -101 42 -52 13 -168 12 -230 -1z"/>
<path d="M6600 6352 c-83 -6 -239 -36 -309 -59 -158 -52 -368 -177 -443 -262
-46 -52 -71 -117 -71 -181 2 -177 159 -303 333 -265 41 8 82 32 165 95 161
122 397 161 595 98 76 -23 193 -94 700 -423 52 -34 179 -115 282 -181 103 -65
188 -122 188 -126 0 -4 -9 -5 -20 -3 -53 10 -167 -45 -215 -104 -83 -103 -70
-285 27 -366 77 -65 98 -70 276 -68 237 3 324 30 441 139 99 91 160 240 155
372 -8 185 -97 323 -287 442 -173 109 -219 138 -526 335 -171 110 -328 211
-351 225 -22 14 -102 64 -177 112 -225 142 -377 198 -588 214 -107 8 -137 9
-175 6z"/>
<path d="M2057 5734 c-1 -1 -31 -4 -67 -7 -179 -13 -328 -118 -405 -282 -59
-126 -65 -271 -14 -392 22 -54 34 -74 75 -127 47 -59 123 -112 554 -386 63
-40 144 -92 180 -115 36 -23 155 -100 265 -170 110 -70 223 -142 250 -160 147
-95 327 -168 470 -190 363 -56 710 37 982 263 101 84 137 186 105 297 -39 135
-169 217 -304 193 -58 -10 -91 -28 -183 -98 -187 -141 -472 -168 -678 -64 -28
15 -154 93 -279 173 -125 80 -238 152 -250 159 -13 7 -95 60 -183 117 -88 57
-208 134 -267 171 -101 64 -120 84 -80 82 69 -5 160 41 208 105 102 135 59
327 -90 405 -47 24 -61 27 -169 27 -65 1 -119 0 -120 -1z"/>
<path d="M6214 5241 c-68 -17 -150 -93 -178 -166 -17 -44 -18 -123 -2 -178 31
-107 128 -178 261 -191 274 -27 511 -230 578 -496 9 -36 48 -211 87 -390 39
-179 83 -377 97 -440 14 -63 26 -121 28 -130 2 -8 13 -58 25 -110 12 -52 23
-103 25 -112 5 -24 -2 -23 -39 6 -62 47 -98 59 -171 59 -85 0 -154 -31 -207
-93 -65 -75 -83 -199 -42 -287 22 -45 161 -186 267 -270 37 -29 126 -65 192
-78 55 -11 159 -5 215 11 246 71 401 306 360 549 -5 28 -12 68 -15 90 -4 22
-9 43 -11 47 -2 3 -8 28 -14 55 -5 26 -52 244 -105 483 -52 239 -97 444 -99
455 -27 131 -71 315 -91 375 -96 287 -308 536 -579 681 -191 102 -454 160
-582 130z"/>
<path d="M5775 4453 c-48 -14 -105 -50 -133 -83 -7 -8 -24 -38 -38 -66 -42
-88 -31 -195 26 -270 135 -174 182 -305 176 -484 -6 -173 -27 -220 -266 -592
-166 -258 -278 -432 -394 -616 -83 -130 -108 -159 -102 -114 8 49 -45 158 -99
204 -81 69 -216 78 -315 21 -48 -27 -107 -107 -120 -163 -10 -40 -7 -277 4
-331 14 -73 22 -99 48 -152 34 -70 132 -173 198 -208 190 -99 391 -81 558 50
47 37 96 105 234 321 19 30 60 93 90 140 288 444 548 858 584 929 167 333 167
733 -1 1072 -48 98 -84 152 -157 240 -80 97 -185 133 -293 102z"/>
<path d="M4861 4193 c-61 -30 -125 -104 -140 -161 -6 -20 -13 -64 -16 -97 -23
-213 -164 -417 -354 -515 -89 -45 -82 -43 -1061 -256 -63 -14 -152 -34 -197
-44 -45 -11 -84 -20 -88 -20 -3 0 8 18 26 40 86 107 85 256 -3 355 -51 58
-120 89 -203 89 -100 1 -145 -25 -258 -147 -111 -119 -151 -174 -177 -243 -27
-72 -31 -97 -31 -182 1 -220 157 -418 376 -476 107 -28 185 -15 1070 184 72
16 142 31 158 35 15 3 39 7 55 10 15 3 43 10 62 15 19 5 47 12 63 15 15 3 39
7 55 10 366 74 603 213 810 477 100 128 203 360 226 513 27 175 16 252 -48
329 -74 91 -218 122 -325 69z"/>
</g>
</svg>
